<svg xmlns="http://www.w3.org/2000/svg" xmlns:xlink="http://www.w3.org/1999/xlink" width="60" zoomAndPan="magnify" viewBox="0 0 45 48" height="64" preserveAspectRatio="xMidYMid meet" version="1.0"><defs><g/><clipPath id="0669f7f93d"><path d="M 10 21 L 20 21 L 20 28 L 10 28 Z M 10 21 " clip-rule="nonzero"/></clipPath><clipPath id="a51ca8f47c"><path d="M 11.847656 20.140625 L 20.132812 23.15625 L 18.375 27.988281 L 10.089844 24.972656 Z M 11.847656 20.140625 " clip-rule="nonzero"/></clipPath><clipPath id="36122c3b7b"><path d="M 11.847656 20.140625 L 20.132812 23.15625 L 18.375 27.988281 L 10.089844 24.972656 Z M 11.847656 20.140625 " clip-rule="nonzero"/></clipPath><clipPath id="d1a938e6f1"><path d="M 3 6 L 8 6 L 8 11 L 3 11 Z M 3 6 " clip-rule="nonzero"/></clipPath><clipPath id="a095ecc9a2"><path d="M 0.460938 7.300781 L 6.863281 3.695312 L 10.46875 10.09375 L 4.070312 13.703125 Z M 0.460938 7.300781 " clip-rule="nonzero"/></clipPath><clipPath id="72ba58cb6c"><path d="M 0.460938 7.300781 L 6.863281 3.695312 L 10.46875 10.09375 L 4.070312 13.703125 Z M 0.460938 7.300781 " clip-rule="nonzero"/></clipPath><clipPath id="ba407fb7fd"><path d="M 4 8 L 7 8 L 7 11 L 4 11 Z M 4 8 " clip-rule="nonzero"/></clipPath><clipPath id="92c5abf370"><path d="M 0.460938 7.300781 L 6.863281 3.695312 L 10.46875 10.09375 L 4.070312 13.703125 Z M 0.460938 7.300781 " clip-rule="nonzero"/></clipPath><clipPath id="35eebc5b13"><path d="M 0.460938 7.300781 L 6.863281 3.695312 L 10.46875 10.09375 L 4.070312 13.703125 Z M 0.460938 7.300781 " clip-rule="nonzero"/></clipPath><clipPath id="a11d46e9d9"><path d="M 4 7 L 6 7 L 6 9 L 4 9 Z M 4 7 " clip-rule="nonzero"/></clipPath><clipPath id="2c4d2eda6b"><path d="M 0.460938 7.300781 L 6.863281 3.695312 L 10.46875 10.09375 L 4.070312 13.703125 Z M 0.460938 7.300781 " clip-rule="nonzero"/></clipPath><clipPath id="eb114a1431"><path d="M 0.460938 7.300781 L 6.863281 3.695312 L 10.46875 10.09375 L 4.070312 13.703125 Z M 0.460938 7.300781 " clip-rule="nonzero"/></clipPath><clipPath id="ddb6bcd810"><path d="M 6 6 L 8 6 L 8 8 L 6 8 Z M 6 6 " clip-rule="nonzero"/></clipPath><clipPath id="15d7d53b35"><path d="M 0.460938 7.300781 L 6.863281 3.695312 L 10.46875 10.09375 L 4.070312 13.703125 Z M 0.460938 7.300781 " clip-rule="nonzero"/></clipPath><clipPath id="c2612b2b3a"><path d="M 0.460938 7.300781 L 6.863281 3.695312 L 10.46875 10.09375 L 4.070312 13.703125 Z M 0.460938 7.300781 " clip-rule="nonzero"/></clipPath><clipPath id="b479f447d9"><path d="M 7 5 L 9 5 L 9 7 L 7 7 Z M 7 5 " clip-rule="nonzero"/></clipPath><clipPath id="3a42540c11"><path d="M 0.460938 7.300781 L 6.863281 3.695312 L 10.46875 10.09375 L 4.070312 13.703125 Z M 0.460938 7.300781 " clip-rule="nonzero"/></clipPath><clipPath id="0c3f52972d"><path d="M 0.460938 7.300781 L 6.863281 3.695312 L 10.46875 10.09375 L 4.070312 13.703125 Z M 0.460938 7.300781 " clip-rule="nonzero"/></clipPath><clipPath id="fe449bbdd4"><path d="M 7 7 L 9 7 L 9 9 L 7 9 Z M 7 7 " clip-rule="nonzero"/></clipPath><clipPath id="dc2baed2f7"><path d="M 0.460938 7.300781 L 6.863281 3.695312 L 10.46875 10.09375 L 4.070312 13.703125 Z M 0.460938 7.300781 " clip-rule="nonzero"/></clipPath><clipPath id="437ff8ec7e"><path d="M 0.460938 7.300781 L 6.863281 3.695312 L 10.46875 10.09375 L 4.070312 13.703125 Z M 0.460938 7.300781 " clip-rule="nonzero"/></clipPath><clipPath id="f105da39cd"><path d="M 8 7 L 10 7 L 10 9 L 8 9 Z M 8 7 " clip-rule="nonzero"/></clipPath><clipPath id="386052edb1"><path d="M 0.460938 7.300781 L 6.863281 3.695312 L 10.46875 10.09375 L 4.070312 13.703125 Z M 0.460938 7.300781 " clip-rule="nonzero"/></clipPath><clipPath id="73cefd1f73"><path d="M 0.460938 7.300781 L 6.863281 3.695312 L 10.46875 10.09375 L 4.070312 13.703125 Z M 0.460938 7.300781 " clip-rule="nonzero"/></clipPath><clipPath id="6579bc657d"><path d="M 8 6 L 9 6 L 9 8 L 8 8 Z M 8 6 " clip-rule="nonzero"/></clipPath><clipPath id="29f4f0f9cc"><path d="M 0.460938 7.300781 L 6.863281 3.695312 L 10.46875 10.09375 L 4.070312 13.703125 Z M 0.460938 7.300781 " clip-rule="nonzero"/></clipPath><clipPath id="c25e7cd48e"><path d="M 0.460938 7.300781 L 6.863281 3.695312 L 10.46875 10.09375 L 4.070312 13.703125 Z M 0.460938 7.300781 " clip-rule="nonzero"/></clipPath><clipPath id="c9cd7299b5"><path d="M 7 7 L 9 7 L 9 8 L 7 8 Z M 7 7 " clip-rule="nonzero"/></clipPath><clipPath id="f456713214"><path d="M 0.460938 7.300781 L 6.863281 3.695312 L 10.46875 10.09375 L 4.070312 13.703125 Z M 0.460938 7.300781 " clip-rule="nonzero"/></clipPath><clipPath id="3d5f1b92cb"><path d="M 0.460938 7.300781 L 6.863281 3.695312 L 10.46875 10.09375 L 4.070312 13.703125 Z M 0.460938 7.300781 " clip-rule="nonzero"/></clipPath><clipPath id="ebc4347aac"><path d="M 2 9 L 4 9 L 4 10 L 2 10 Z M 2 9 " clip-rule="nonzero"/></clipPath><clipPath id="4e6c54de7b"><path d="M 0.460938 7.300781 L 6.863281 3.695312 L 10.46875 10.09375 L 4.070312 13.703125 Z M 0.460938 7.300781 " clip-rule="nonzero"/></clipPath><clipPath id="fda82a7530"><path d="M 0.460938 7.300781 L 6.863281 3.695312 L 10.46875 10.09375 L 4.070312 13.703125 Z M 0.460938 7.300781 " clip-rule="nonzero"/></clipPath><clipPath id="825394402d"><path d="M 1 9 L 3 9 L 3 10 L 1 10 Z M 1 9 " clip-rule="nonzero"/></clipPath><clipPath id="37b307f777"><path d="M 0.460938 7.300781 L 6.863281 3.695312 L 10.46875 10.09375 L 4.070312 13.703125 Z M 0.460938 7.300781 " clip-rule="nonzero"/></clipPath><clipPath id="29f3ba0111"><path d="M 0.460938 7.300781 L 6.863281 3.695312 L 10.46875 10.09375 L 4.070312 13.703125 Z M 0.460938 7.300781 " clip-rule="nonzero"/></clipPath><clipPath id="28157a6cf4"><path d="M 3 10 L 4 10 L 4 12 L 3 12 Z M 3 10 " clip-rule="nonzero"/></clipPath><clipPath id="0e95a4f11a"><path d="M 0.460938 7.300781 L 6.863281 3.695312 L 10.46875 10.09375 L 4.070312 13.703125 Z M 0.460938 7.300781 " clip-rule="nonzero"/></clipPath><clipPath id="4d0b0cdbb0"><path d="M 0.460938 7.300781 L 6.863281 3.695312 L 10.46875 10.09375 L 4.070312 13.703125 Z M 0.460938 7.300781 " clip-rule="nonzero"/></clipPath><clipPath id="103491111e"><path d="M 2 11 L 4 11 L 4 12 L 2 12 Z M 2 11 " clip-rule="nonzero"/></clipPath><clipPath id="2baebb9c70"><path d="M 0.460938 7.300781 L 6.863281 3.695312 L 10.46875 10.09375 L 4.070312 13.703125 Z M 0.460938 7.300781 " clip-rule="nonzero"/></clipPath><clipPath id="187ac1322a"><path d="M 0.460938 7.300781 L 6.863281 3.695312 L 10.46875 10.09375 L 4.070312 13.703125 Z M 0.460938 7.300781 " clip-rule="nonzero"/></clipPath><clipPath id="45ef320ad9"><path d="M 2 10 L 3 10 L 3 11 L 2 11 Z M 2 10 " clip-rule="nonzero"/></clipPath><clipPath id="1f1e25a846"><path d="M 0.460938 7.300781 L 6.863281 3.695312 L 10.46875 10.09375 L 4.070312 13.703125 Z M 0.460938 7.300781 " clip-rule="nonzero"/></clipPath><clipPath id="ac5ca092f3"><path d="M 0.460938 7.300781 L 6.863281 3.695312 L 10.46875 10.09375 L 4.070312 13.703125 Z M 0.460938 7.300781 " clip-rule="nonzero"/></clipPath><clipPath id="799fbfbdfc"><path d="M 2 9 L 4 9 L 4 11 L 2 11 Z M 2 9 " clip-rule="nonzero"/></clipPath><clipPath id="0fa741d70d"><path d="M 0.460938 7.300781 L 6.863281 3.695312 L 10.46875 10.09375 L 4.070312 13.703125 Z M 0.460938 7.300781 " clip-rule="nonzero"/></clipPath><clipPath id="1a56565b48"><path d="M 0.460938 7.300781 L 6.863281 3.695312 L 10.46875 10.09375 L 4.070312 13.703125 Z M 0.460938 7.300781 " clip-rule="nonzero"/></clipPath><clipPath id="214e997388"><path d="M 6 10 L 9 10 L 9 12 L 6 12 Z M 6 10 " clip-rule="nonzero"/></clipPath><clipPath id="b22bf4d097"><path d="M 0.460938 7.300781 L 6.863281 3.695312 L 10.46875 10.09375 L 4.070312 13.703125 Z M 0.460938 7.300781 " clip-rule="nonzero"/></clipPath><clipPath id="8de584ef4d"><path d="M 0.460938 7.300781 L 6.863281 3.695312 L 10.46875 10.09375 L 4.070312 13.703125 Z M 0.460938 7.300781 " clip-rule="nonzero"/></clipPath><clipPath id="59ff62a2a8"><path d="M 7 10 L 9 10 L 9 12 L 7 12 Z M 7 10 " clip-rule="nonzero"/></clipPath><clipPath id="5b86950018"><path d="M 0.460938 7.300781 L 6.863281 3.695312 L 10.46875 10.09375 L 4.070312 13.703125 Z M 0.460938 7.300781 " clip-rule="nonzero"/></clipPath><clipPath id="c61bccc977"><path d="M 0.460938 7.300781 L 6.863281 3.695312 L 10.46875 10.09375 L 4.070312 13.703125 Z M 0.460938 7.300781 " clip-rule="nonzero"/></clipPath><clipPath id="d7cdb4fbf3"><path d="M 5 10 L 7 10 L 7 13 L 5 13 Z M 5 10 " clip-rule="nonzero"/></clipPath><clipPath id="24400f2a83"><path d="M 0.460938 7.300781 L 6.863281 3.695312 L 10.46875 10.09375 L 4.070312 13.703125 Z M 0.460938 7.300781 " clip-rule="nonzero"/></clipPath><clipPath id="0c3afadc4b"><path d="M 0.460938 7.300781 L 6.863281 3.695312 L 10.46875 10.09375 L 4.070312 13.703125 Z M 0.460938 7.300781 " clip-rule="nonzero"/></clipPath><clipPath id="9e59ba5158"><path d="M 6 11 L 7 11 L 7 13 L 6 13 Z M 6 11 " clip-rule="nonzero"/></clipPath><clipPath id="7aac00604c"><path d="M 0.460938 7.300781 L 6.863281 3.695312 L 10.46875 10.09375 L 4.070312 13.703125 Z M 0.460938 7.300781 " clip-rule="nonzero"/></clipPath><clipPath id="b6c1090a52"><path d="M 0.460938 7.300781 L 6.863281 3.695312 L 10.46875 10.09375 L 4.070312 13.703125 Z M 0.460938 7.300781 " clip-rule="nonzero"/></clipPath><clipPath id="6ec8c1e23f"><path d="M 6 11 L 8 11 L 8 12 L 6 12 Z M 6 11 " clip-rule="nonzero"/></clipPath><clipPath id="927301611a"><path d="M 0.460938 7.300781 L 6.863281 3.695312 L 10.46875 10.09375 L 4.070312 13.703125 Z M 0.460938 7.300781 " clip-rule="nonzero"/></clipPath><clipPath id="3029dd97a7"><path d="M 0.460938 7.300781 L 6.863281 3.695312 L 10.46875 10.09375 L 4.070312 13.703125 Z M 0.460938 7.300781 " clip-rule="nonzero"/></clipPath><clipPath id="b6acee9229"><path d="M 6 10 L 8 10 L 8 12 L 6 12 Z M 6 10 " clip-rule="nonzero"/></clipPath><clipPath id="e22a3d4574"><path d="M 0.460938 7.300781 L 6.863281 3.695312 L 10.46875 10.09375 L 4.070312 13.703125 Z M 0.460938 7.300781 " clip-rule="nonzero"/></clipPath><clipPath id="0a0af7c51e"><path d="M 0.460938 7.300781 L 6.863281 3.695312 L 10.46875 10.09375 L 4.070312 13.703125 Z M 0.460938 7.300781 " clip-rule="nonzero"/></clipPath><clipPath id="26b385e6f1"><path d="M 4 5 L 6 5 L 6 7 L 4 7 Z M 4 5 " clip-rule="nonzero"/></clipPath><clipPath id="cfc790fada"><path d="M 0.460938 7.300781 L 6.863281 3.695312 L 10.46875 10.09375 L 4.070312 13.703125 Z M 0.460938 7.300781 " clip-rule="nonzero"/></clipPath><clipPath id="af1ca55cd2"><path d="M 0.460938 7.300781 L 6.863281 3.695312 L 10.46875 10.09375 L 4.070312 13.703125 Z M 0.460938 7.300781 " clip-rule="nonzero"/></clipPath><clipPath id="e29c6dbf0d"><path d="M 4 4 L 5 4 L 5 6 L 4 6 Z M 4 4 " clip-rule="nonzero"/></clipPath><clipPath id="459ccb4e4c"><path d="M 0.460938 7.300781 L 6.863281 3.695312 L 10.46875 10.09375 L 4.070312 13.703125 Z M 0.460938 7.300781 " clip-rule="nonzero"/></clipPath><clipPath id="a85c92222c"><path d="M 0.460938 7.300781 L 6.863281 3.695312 L 10.46875 10.09375 L 4.070312 13.703125 Z M 0.460938 7.300781 " clip-rule="nonzero"/></clipPath><clipPath id="5d5a95e6f6"><path d="M 2 6 L 5 6 L 5 8 L 2 8 Z M 2 6 " clip-rule="nonzero"/></clipPath><clipPath id="da664083c6"><path d="M 0.460938 7.300781 L 6.863281 3.695312 L 10.46875 10.09375 L 4.070312 13.703125 Z M 0.460938 7.300781 " clip-rule="nonzero"/></clipPath><clipPath id="ffbf738058"><path d="M 0.460938 7.300781 L 6.863281 3.695312 L 10.46875 10.09375 L 4.070312 13.703125 Z M 0.460938 7.300781 " clip-rule="nonzero"/></clipPath><clipPath id="1f4d64efe4"><path d="M 2 5 L 4 5 L 4 7 L 2 7 Z M 2 5 " clip-rule="nonzero"/></clipPath><clipPath id="72f1f0cd5e"><path d="M 0.460938 7.300781 L 6.863281 3.695312 L 10.46875 10.09375 L 4.070312 13.703125 Z M 0.460938 7.300781 " clip-rule="nonzero"/></clipPath><clipPath id="7551274ff8"><path d="M 0.460938 7.300781 L 6.863281 3.695312 L 10.46875 10.09375 L 4.070312 13.703125 Z M 0.460938 7.300781 " clip-rule="nonzero"/></clipPath><clipPath id="d73242ea15"><path d="M 3 5 L 5 5 L 5 7 L 3 7 Z M 3 5 " clip-rule="nonzero"/></clipPath><clipPath id="48319e91f7"><path d="M 0.460938 7.300781 L 6.863281 3.695312 L 10.46875 10.09375 L 4.070312 13.703125 Z M 0.460938 7.300781 " clip-rule="nonzero"/></clipPath><clipPath id="81a002dd15"><path d="M 0.460938 7.300781 L 6.863281 3.695312 L 10.46875 10.09375 L 4.070312 13.703125 Z M 0.460938 7.300781 " clip-rule="nonzero"/></clipPath></defs><g fill="#ffde59" fill-opacity="1"><g transform="translate(1.57389, 36.440227)"><g><path d="M 6.457031 -10.050781 C 8.183594 -10.585938 7.480469 -12.980469 5.683594 -12.136719 C 4.824219 -11.742188 3.769531 -11.128906 2.257812 -11.128906 C 1.433594 -11.128906 2.625 -8.878906 6.457031 -10.050781 Z M 7.207031 -8.636719 C 7.109375 -8.316406 7.035156 -8.007812 6.972656 -7.714844 C 6.460938 -8.128906 5.820312 -8.355469 5.054688 -8.355469 C 2.3125 -8.355469 0.417969 -6.34375 0.417969 -4.164062 C 0.417969 -1.300781 2.527344 0.0078125 4.597656 0.0078125 C 7.375 0.0078125 8.515625 -2.804688 8.515625 -3.515625 C 8.515625 -5.355469 9.269531 -6.652344 9.757812 -7.695312 C 10.78125 -9.890625 7.855469 -10.746094 7.207031 -8.636719 Z M 3.191406 -4.902344 C 3.230469 -7.167969 6.582031 -7.242188 6.636719 -4.921875 C 6.699219 -2.640625 3.148438 -2.644531 3.191406 -4.902344 Z M 3.191406 -4.902344 "/></g></g></g><g fill="#ffde59" fill-opacity="1"><g transform="translate(9.687125, 36.440227)"><g><path d="M 5.230469 -6.621094 C 3.65625 -5.71875 3.398438 -3.796875 4.023438 -2.117188 C 2.800781 -1.238281 0.625 -1.714844 0.402344 -3.515625 L 0 -3.132812 C 0 0.570312 3.351562 1.359375 4.695312 -0.878906 C 5.363281 0.0351562 6.335938 0.71875 7.515625 0.851562 C 8.898438 1.011719 10.371094 0.25 10.371094 -1.851562 C 10.371094 -4.4375 7.339844 -7.835938 5.230469 -6.621094 Z M 7.640625 -2.550781 C 7.054688 -1.324219 5.273438 -3.105469 5.632812 -4.476562 C 6.714844 -4.730469 8.070312 -3.460938 7.640625 -2.550781 Z M 7.640625 -2.550781 "/></g></g></g><g fill="#ffde59" fill-opacity="1"><g transform="translate(18.573381, 36.447188)"><g><path d="M 3.175781 -0.0078125 C 6.769531 -0.0078125 8.273438 -4.316406 6.824219 -6.644531 C 5.949219 -8.058594 3.675781 -7.582031 3.675781 -5.621094 C 3.675781 -4.316406 5.230469 -3.585938 4.636719 -2.457031 C 3.78125 -1.105469 0.792969 -1.894531 0.402344 -3.523438 L 0 -3.140625 C 0 -1.289062 1.183594 -0.0078125 3.175781 -0.0078125 Z M 2.835938 1.21875 C 1.140625 1.746094 1.832031 4.09375 3.59375 3.273438 C 4.4375 2.882812 5.472656 2.277344 6.949219 2.277344 C 7.757812 2.277344 6.589844 0.078125 2.835938 1.21875 Z M 2.835938 1.21875 "/></g></g></g><g fill="#ffde59" fill-opacity="1"><g transform="translate(24.646119, 36.447188)"><g><path d="M 0 -3.132812 C 0 -1.28125 1.183594 0 3.175781 0 C 5.84375 0 8.691406 -2.304688 9.164062 -4.796875 L 9.3125 -6.992188 C 9.394531 -8.96875 4.882812 -8.933594 3.46875 -7.214844 C 2.074219 -5.515625 2.964844 -3.726562 4.375 -4.089844 C 4.832031 -4.199219 4.917969 -4.144531 5.398438 -3.511719 C 4.03125 -1.40625 0.71875 -1.003906 0.402344 -3.515625 Z M 0 -3.132812 "/></g></g></g><g fill="#ffde59" fill-opacity="1"><g transform="translate(32.738463, 36.447188)"><g><path d="M 9.910156 -4.804688 C 9.910156 -6.363281 8.425781 -7.597656 6.589844 -7.296875 C 5.238281 -7.0625 4.179688 -6.039062 3.476562 -4.625 C 3.316406 -6.527344 3.703125 -7.90625 4.714844 -10.027344 C 5.460938 -11.8125 2.492188 -12.910156 1.78125 -10.019531 C 1.40625 -7.847656 1.300781 -4.992188 2.507812 -2.285156 C 2.550781 -2.171875 2.597656 -2.082031 2.644531 -2.003906 L 2.617188 -1.8125 C 1.273438 -1.957031 0.515625 -2.632812 0.402344 -3.515625 L 0 -3.132812 C 0 -1.511719 0.914062 -0.320312 2.480469 -0.0546875 L 2.480469 -0.015625 C 2.480469 0.730469 2.765625 1.386719 3.523438 1.386719 C 4.3125 1.386719 4.441406 0.625 4.367188 -0.0078125 C 7.488281 -0.257812 9.910156 -2.132812 9.910156 -4.804688 Z M 6.429688 -2.320312 C 5.878906 -1.914062 5.160156 -1.816406 4.394531 -1.742188 C 5.472656 -6.949219 9.152344 -4.332031 6.429688 -2.320312 Z M 6.429688 -2.320312 "/></g></g></g><g fill="#ffde59" fill-opacity="1"><g transform="translate(2.625474, 17.261264)"><g><path d="M 7.820312 -6.261719 C 6.300781 -6.332031 5.257812 -5.078125 4.847656 -3.574219 C 4.5 -3.886719 4.082031 -4.074219 3.613281 -4.074219 C 0.179688 -4.074219 -0.0703125 1.644531 0.941406 5.089844 C 1.59375 7.738281 4.882812 6.726562 4.207031 5.097656 C 3.246094 3.085938 2.429688 1.199219 2.417969 -0.890625 C 2.417969 -2.382812 3.738281 -2.800781 4.652344 -2.222656 C 4.574219 2.421875 10.175781 2.765625 10.597656 -1.492188 C 10.925781 -4.074219 9.589844 -6.175781 7.820312 -6.261719 Z M 8.488281 -1.433594 C 7.1875 -1.15625 6.09375 -3.84375 7.410156 -4.375 C 8.773438 -4.902344 9.902344 -1.761719 8.488281 -1.433594 Z M 8.488281 -1.433594 "/></g></g></g><g fill="#ffde59" fill-opacity="1"><g transform="translate(12.333498, 17.268226)"><g><path d="M 1.554688 -9.796875 C 0.855469 -8.386719 2.773438 -7.667969 3.273438 -9.03125 L 4.117188 -10.753906 L 4.839844 -9.136719 C 5.355469 -7.488281 7.304688 -8.761719 6.554688 -9.902344 L 5.25 -11.558594 C 4.527344 -12.320312 3.574219 -12.3125 2.945312 -11.371094 Z M 3.175781 -0.0078125 C 6.769531 -0.0078125 8.273438 -4.316406 6.824219 -6.644531 C 5.949219 -8.058594 3.675781 -7.582031 3.675781 -5.621094 C 3.675781 -4.316406 5.230469 -3.585938 4.636719 -2.457031 C 3.78125 -1.105469 0.792969 -1.894531 0.402344 -3.523438 L 0 -3.140625 C 0 -1.289062 1.183594 -0.0078125 3.175781 -0.0078125 Z M 3.175781 -0.0078125 "/></g></g></g><g fill="#ffde59" fill-opacity="1"><g transform="translate(18.406236, 17.275188)"><g><path d="M 3.175781 -0.0078125 C 6.769531 -0.0078125 8.273438 -4.316406 6.824219 -6.644531 C 5.949219 -8.058594 3.675781 -7.582031 3.675781 -5.621094 C 3.675781 -4.316406 5.230469 -3.585938 4.636719 -2.457031 C 3.78125 -1.105469 0.792969 -1.894531 0.402344 -3.523438 L 0 -3.140625 C 0 -1.289062 1.183594 -0.0078125 3.175781 -0.0078125 Z M 2.835938 1.21875 C 1.140625 1.746094 1.832031 4.09375 3.59375 3.273438 C 4.4375 2.882812 5.472656 2.277344 6.949219 2.277344 C 7.757812 2.277344 6.589844 0.078125 2.835938 1.21875 Z M 2.835938 1.21875 "/></g></g></g><g fill="#ffde59" fill-opacity="1"><g transform="translate(24.478975, 17.275188)"><g><path d="M 0 -3.132812 C 0 0 3.246094 1.335938 5.730469 0.238281 C 8.246094 0.800781 11.246094 0.328125 12.089844 -1.398438 L 12.5625 -2.742188 C 13.246094 -5.425781 9.992188 -9.652344 7.230469 -9.476562 C 6.136719 -9.410156 5.621094 -8.636719 5.828125 -7.179688 C 7.367188 -7.304688 9.445312 -5.425781 10.070312 -3.914062 C 10.363281 -3.203125 10.65625 -2.519531 10.097656 -2.214844 C 9.605469 -1.941406 8.558594 -1.832031 7.820312 -1.777344 C 8.761719 -3.183594 8.90625 -5.265625 6.816406 -6.398438 C 5.710938 -7 4.367188 -6.742188 3.699219 -6.386719 C 2.960938 -5.976562 2.714844 -4.980469 3.585938 -4.820312 C 2.6875 -3.523438 2.421875 -2.367188 3.382812 -1.398438 C 1.867188 -1.457031 0.730469 -2.136719 0.402344 -3.515625 Z M 5.015625 -3.238281 C 5.648438 -4.003906 6.398438 -3.746094 6.714844 -3.21875 C 7.054688 -2.640625 6.847656 -2.082031 6.136719 -1.84375 C 5.140625 -2.035156 4.503906 -2.492188 5.015625 -3.238281 Z M 5.015625 -3.238281 "/></g></g></g><g clip-path="url(#0669f7f93d)"><g clip-path="url(#a51ca8f47c)"><g clip-path="url(#36122c3b7b)"><path fill="#ffde59" d="M 16.867188 22.0625 C 16.734375 21.945312 16.535156 21.960938 16.421875 22.089844 L 13.289062 25.664062 C 13.171875 25.792969 13.1875 25.992188 13.320312 26.105469 C 13.351562 26.132812 13.386719 26.152344 13.421875 26.164062 C 13.539062 26.207031 13.679688 26.175781 13.769531 26.078125 L 16.902344 22.503906 C 17.015625 22.375 17 22.175781 16.867188 22.0625 Z M 19.199219 25.347656 L 17.949219 22.503906 C 17.878906 22.347656 17.691406 22.273438 17.53125 22.339844 C 17.371094 22.410156 17.296875 22.59375 17.367188 22.75 L 18.496094 25.324219 L 15.980469 26.566406 C 15.824219 26.640625 15.761719 26.828125 15.839844 26.984375 C 15.878906 27.058594 15.941406 27.113281 16.015625 27.140625 C 16.09375 27.167969 16.1875 27.167969 16.269531 27.128906 L 19.050781 25.753906 C 19.199219 25.679688 19.265625 25.5 19.199219 25.347656 Z M 14.347656 21.183594 C 14.265625 21.027344 14.078125 20.964844 13.921875 21.039062 L 11.136719 22.414062 C 10.988281 22.488281 10.921875 22.664062 10.992188 22.820312 L 12.238281 25.660156 C 12.277344 25.746094 12.34375 25.804688 12.421875 25.832031 C 12.496094 25.859375 12.578125 25.859375 12.65625 25.828125 C 12.816406 25.757812 12.890625 25.574219 12.820312 25.414062 L 11.691406 22.84375 L 14.207031 21.601562 C 14.363281 21.523438 14.425781 21.335938 14.347656 21.183594 " fill-opacity="1" fill-rule="nonzero"/></g></g></g><g clip-path="url(#d1a938e6f1)"><g clip-path="url(#a095ecc9a2)"><g clip-path="url(#72ba58cb6c)"><path fill="#ffde59" d="M 6.4375 10.425781 C 5.488281 10.960938 4.273438 10.621094 3.738281 9.671875 C 3.203125 8.722656 3.542969 7.507812 4.492188 6.972656 C 5.441406 6.4375 6.65625 6.777344 7.191406 7.726562 C 7.726562 8.675781 7.386719 9.890625 6.4375 10.425781 Z M 4.464844 8.769531 L 4.4375 8.71875 C 4.230469 8.292969 4.398438 7.769531 4.808594 7.535156 C 5.222656 7.304688 5.753906 7.433594 6.011719 7.832031 L 6.042969 7.878906 C 6.15625 7.878906 6.277344 7.945312 6.332031 8.046875 L 6.890625 9.03125 C 6.980469 9.195312 6.933594 9.402344 6.769531 9.496094 L 5.46875 10.226562 C 5.308594 10.320312 5.105469 10.253906 5.011719 10.089844 L 4.457031 9.101562 C 4.402344 9.003906 4.40625 8.867188 4.464844 8.769531 Z M 4.464844 8.769531 " fill-opacity="1" fill-rule="evenodd"/></g></g></g><g clip-path="url(#ba407fb7fd)"><g clip-path="url(#92c5abf370)"><g clip-path="url(#35eebc5b13)"><path fill="#ffde59" d="M 6.6875 9.34375 L 5.386719 10.078125 C 5.3125 10.121094 5.207031 10.082031 5.164062 10.003906 L 4.605469 9.019531 C 4.566406 8.941406 4.59375 8.84375 4.667969 8.804688 L 5.96875 8.070312 C 6.042969 8.027344 6.140625 8.054688 6.183594 8.128906 L 6.738281 9.117188 C 6.78125 9.191406 6.761719 9.304688 6.6875 9.34375 Z M 5.636719 9.179688 C 5.546875 9.195312 5.4375 9.144531 5.386719 9.054688 C 5.324219 8.945312 5.367188 8.789062 5.480469 8.722656 C 5.589844 8.660156 5.746094 8.703125 5.8125 8.816406 C 5.859375 8.902344 5.847656 9.027344 5.785156 9.09375 L 5.898438 9.292969 C 5.925781 9.34375 5.902344 9.390625 5.867188 9.410156 C 5.828125 9.433594 5.777344 9.429688 5.75 9.378906 Z M 5.5625 8.875 C 5.527344 8.894531 5.523438 8.945312 5.535156 8.972656 C 5.558594 9.007812 5.597656 9.019531 5.632812 9 C 5.671875 8.976562 5.683594 8.9375 5.660156 8.902344 C 5.648438 8.875 5.601562 8.851562 5.5625 8.875 Z M 5.632812 9 Z M 5.632812 9 " fill-opacity="1" fill-rule="evenodd"/></g></g></g><g clip-path="url(#a11d46e9d9)"><g clip-path="url(#2c4d2eda6b)"><g clip-path="url(#eb114a1431)"><path fill="#ffde59" d="M 4.59375 8.644531 C 4.4375 8.308594 4.558594 7.875 4.894531 7.6875 C 5.230469 7.496094 5.660156 7.617188 5.871094 7.925781 L 5.71875 8.011719 C 5.554688 7.777344 5.230469 7.695312 4.980469 7.835938 C 4.730469 7.976562 4.628906 8.296875 4.746094 8.5625 Z M 4.59375 8.644531 " fill-opacity="1" fill-rule="evenodd"/></g></g></g><g clip-path="url(#ddb6bcd810)"><g clip-path="url(#15d7d53b35)"><g clip-path="url(#c2612b2b3a)"><path fill="#ffde59" d="M 7.15625 7.203125 L 7.058594 7.257812 C 7.015625 7.214844 6.976562 7.171875 6.9375 7.128906 L 7.035156 7.074219 L 7.1875 6.523438 C 7.195312 6.503906 7.21875 6.492188 7.230469 6.484375 L 7.792969 6.167969 C 7.84375 6.140625 7.882812 6.148438 7.910156 6.199219 C 7.933594 6.238281 7.929688 6.289062 7.878906 6.316406 L 7.351562 6.613281 L 7.195312 7.148438 C 7.195312 7.179688 7.171875 7.195312 7.15625 7.203125 Z M 7.15625 7.203125 " fill-opacity="1" fill-rule="evenodd"/></g></g></g><g clip-path="url(#b479f447d9)"><g clip-path="url(#3a42540c11)"><g clip-path="url(#0c3f52972d)"><path fill="#ffde59" d="M 8.085938 6.363281 C 7.972656 6.429688 7.824219 6.398438 7.761719 6.285156 C 7.691406 6.160156 7.742188 6.015625 7.855469 5.953125 C 7.964844 5.890625 8.117188 5.921875 8.1875 6.046875 C 8.25 6.15625 8.199219 6.300781 8.085938 6.363281 Z M 8.085938 6.363281 " fill-opacity="1" fill-rule="evenodd"/></g></g></g><g clip-path="url(#fe449bbdd4)"><g clip-path="url(#dc2baed2f7)"><g clip-path="url(#437ff8ec7e)"><path fill="#ffde59" d="M 8.835938 8.019531 L 8.273438 8.335938 C 8.261719 8.339844 8.238281 8.355469 8.21875 8.351562 L 7.667969 8.199219 L 7.570312 8.253906 C 7.554688 8.195312 7.539062 8.140625 7.523438 8.082031 L 7.621094 8.027344 C 7.636719 8.019531 7.660156 8.003906 7.6875 8.023438 L 8.226562 8.164062 L 8.753906 7.867188 C 8.800781 7.839844 8.847656 7.863281 8.871094 7.902344 C 8.898438 7.949219 8.886719 7.988281 8.835938 8.019531 Z M 8.835938 8.019531 " fill-opacity="1" fill-rule="evenodd"/></g></g></g><g clip-path="url(#f105da39cd)"><g clip-path="url(#386052edb1)"><g clip-path="url(#73cefd1f73)"><path fill="#ffde59" d="M 9.050781 8.078125 C 8.9375 8.140625 8.789062 8.109375 8.71875 7.984375 C 8.65625 7.871094 8.707031 7.730469 8.820312 7.664062 C 8.929688 7.601562 9.082031 7.632812 9.144531 7.746094 C 9.214844 7.871094 9.164062 8.015625 9.050781 8.078125 Z M 9.050781 8.078125 " fill-opacity="1" fill-rule="evenodd"/></g></g></g><g clip-path="url(#6579bc657d)"><g clip-path="url(#29f4f0f9cc)"><g clip-path="url(#c25e7cd48e)"><path fill="#ffde59" d="M 8.433594 7.304688 C 8.324219 7.367188 8.167969 7.324219 8.101562 7.210938 C 8.039062 7.101562 8.082031 6.945312 8.195312 6.878906 C 8.308594 6.816406 8.464844 6.859375 8.527344 6.972656 C 8.589844 7.085938 8.546875 7.242188 8.433594 7.304688 Z M 8.433594 7.304688 " fill-opacity="1" fill-rule="evenodd"/></g></g></g><g clip-path="url(#c9cd7299b5)"><g clip-path="url(#f456713214)"><g clip-path="url(#3d5f1b92cb)"><path fill="#ffde59" d="M 8.21875 7.246094 L 7.382812 7.71875 C 7.367188 7.691406 7.355469 7.667969 7.339844 7.640625 C 7.324219 7.617188 7.3125 7.59375 7.296875 7.566406 L 8.136719 7.09375 C 8.171875 7.074219 8.230469 7.089844 8.253906 7.128906 C 8.273438 7.164062 8.257812 7.222656 8.21875 7.246094 Z M 8.21875 7.246094 " fill-opacity="1" fill-rule="evenodd"/></g></g></g><g clip-path="url(#ebc4347aac)"><g clip-path="url(#4e6c54de7b)"><g clip-path="url(#fda82a7530)"><path fill="#ffde59" d="M 3.40625 9.316406 L 3.308594 9.371094 C 3.292969 9.378906 3.269531 9.394531 3.242188 9.375 L 2.703125 9.234375 L 2.179688 9.53125 C 2.128906 9.558594 2.082031 9.535156 2.0625 9.496094 C 2.03125 9.449219 2.042969 9.410156 2.09375 9.378906 L 2.65625 9.0625 C 2.667969 9.054688 2.695312 9.042969 2.714844 9.046875 L 3.261719 9.199219 L 3.359375 9.144531 C 3.375 9.199219 3.390625 9.257812 3.40625 9.316406 Z M 3.40625 9.316406 " fill-opacity="1" fill-rule="evenodd"/></g></g></g><g clip-path="url(#825394402d)"><g clip-path="url(#37b307f777)"><g clip-path="url(#29f3ba0111)"><path fill="#ffde59" d="M 2.109375 9.734375 C 2 9.796875 1.847656 9.765625 1.785156 9.652344 C 1.714844 9.527344 1.765625 9.382812 1.878906 9.320312 C 1.992188 9.257812 2.140625 9.289062 2.210938 9.414062 C 2.273438 9.527344 2.222656 9.667969 2.109375 9.734375 Z M 2.109375 9.734375 " fill-opacity="1" fill-rule="evenodd"/></g></g></g><g clip-path="url(#28157a6cf4)"><g clip-path="url(#0e95a4f11a)"><g clip-path="url(#4d0b0cdbb0)"><path fill="#ffde59" d="M 3.699219 10.914062 L 3.136719 11.230469 C 3.085938 11.257812 3.046875 11.246094 3.019531 11.199219 C 2.996094 11.160156 3 11.109375 3.050781 11.082031 L 3.578125 10.785156 L 3.738281 10.25 C 3.734375 10.21875 3.761719 10.203125 3.773438 10.195312 L 3.871094 10.140625 C 3.914062 10.183594 3.953125 10.226562 3.996094 10.269531 L 3.894531 10.324219 L 3.742188 10.871094 C 3.734375 10.890625 3.710938 10.90625 3.699219 10.914062 Z M 3.699219 10.914062 " fill-opacity="1" fill-rule="evenodd"/></g></g></g><g clip-path="url(#103491111e)"><g clip-path="url(#2baebb9c70)"><g clip-path="url(#187ac1322a)"><path fill="#ffde59" d="M 3.078125 11.445312 C 2.964844 11.507812 2.8125 11.476562 2.742188 11.351562 C 2.679688 11.242188 2.730469 11.097656 2.84375 11.03125 C 2.957031 10.96875 3.105469 11 3.167969 11.113281 C 3.238281 11.238281 3.1875 11.382812 3.078125 11.445312 Z M 3.078125 11.445312 " fill-opacity="1" fill-rule="evenodd"/></g></g></g><g clip-path="url(#45ef320ad9)"><g clip-path="url(#1f1e25a846)"><g clip-path="url(#ac5ca092f3)"><path fill="#ffde59" d="M 2.734375 10.519531 C 2.621094 10.582031 2.464844 10.539062 2.402344 10.425781 C 2.339844 10.3125 2.382812 10.15625 2.496094 10.09375 C 2.609375 10.03125 2.765625 10.074219 2.828125 10.1875 C 2.890625 10.296875 2.847656 10.453125 2.734375 10.519531 Z M 2.734375 10.519531 " fill-opacity="1" fill-rule="evenodd"/></g></g></g><g clip-path="url(#799fbfbdfc)"><g clip-path="url(#0fa741d70d)"><g clip-path="url(#1a56565b48)"><path fill="#ffde59" d="M 3.632812 9.832031 L 2.792969 10.304688 C 2.757812 10.324219 2.699219 10.308594 2.675781 10.269531 C 2.65625 10.234375 2.671875 10.175781 2.710938 10.152344 L 3.546875 9.679688 C 3.5625 9.707031 3.574219 9.730469 3.589844 9.757812 C 3.605469 9.78125 3.617188 9.804688 3.632812 9.832031 Z M 3.632812 9.832031 " fill-opacity="1" fill-rule="evenodd"/></g></g></g><g clip-path="url(#214e997388)"><g clip-path="url(#b22bf4d097)"><g clip-path="url(#8de584ef4d)"><path fill="#ffde59" d="M 7.964844 11.144531 C 7.925781 11.167969 7.875 11.164062 7.847656 11.113281 L 7.550781 10.585938 L 7.015625 10.425781 C 6.984375 10.429688 6.96875 10.402344 6.960938 10.390625 L 6.90625 10.292969 C 6.949219 10.25 6.992188 10.210938 7.035156 10.167969 L 7.089844 10.269531 L 7.640625 10.421875 C 7.660156 10.429688 7.671875 10.453125 7.679688 10.464844 L 7.996094 11.027344 C 8.023438 11.078125 8.015625 11.117188 7.964844 11.144531 Z M 7.964844 11.144531 " fill-opacity="1" fill-rule="evenodd"/></g></g></g><g clip-path="url(#59ff62a2a8)"><g clip-path="url(#5b86950018)"><g clip-path="url(#c61bccc977)"><path fill="#ffde59" d="M 8.117188 11.421875 C 8.007812 11.484375 7.863281 11.433594 7.800781 11.320312 C 7.734375 11.207031 7.765625 11.058594 7.878906 10.996094 C 8.003906 10.925781 8.148438 10.976562 8.210938 11.085938 C 8.273438 11.199219 8.242188 11.351562 8.117188 11.421875 Z M 8.117188 11.421875 " fill-opacity="1" fill-rule="evenodd"/></g></g></g><g clip-path="url(#d7cdb4fbf3)"><g clip-path="url(#24400f2a83)"><g clip-path="url(#0c3afadc4b)"><path fill="#ffde59" d="M 6.261719 12.101562 C 6.214844 12.132812 6.175781 12.121094 6.144531 12.070312 L 5.828125 11.507812 C 5.820312 11.496094 5.808594 11.46875 5.8125 11.449219 L 5.964844 10.902344 L 5.910156 10.804688 C 5.96875 10.789062 6.023438 10.773438 6.082031 10.757812 L 6.136719 10.855469 C 6.144531 10.871094 6.160156 10.894531 6.140625 10.921875 L 6 11.460938 L 6.296875 11.984375 C 6.324219 12.035156 6.300781 12.082031 6.261719 12.101562 Z M 6.261719 12.101562 " fill-opacity="1" fill-rule="evenodd"/></g></g></g><g clip-path="url(#9e59ba5158)"><g clip-path="url(#7aac00604c)"><g clip-path="url(#b6c1090a52)"><path fill="#ffde59" d="M 6.417969 12.378906 C 6.292969 12.449219 6.148438 12.398438 6.085938 12.285156 C 6.023438 12.171875 6.054688 12.023438 6.179688 11.953125 C 6.292969 11.890625 6.433594 11.941406 6.5 12.054688 C 6.5625 12.164062 6.53125 12.316406 6.417969 12.378906 Z M 6.417969 12.378906 " fill-opacity="1" fill-rule="evenodd"/></g></g></g><g clip-path="url(#6ec8c1e23f)"><g clip-path="url(#927301611a)"><g clip-path="url(#3029dd97a7)"><path fill="#ffde59" d="M 7.191406 11.761719 C 7.078125 11.824219 6.921875 11.78125 6.859375 11.667969 C 6.796875 11.554688 6.839844 11.398438 6.953125 11.335938 C 7.0625 11.273438 7.21875 11.316406 7.285156 11.429688 C 7.347656 11.542969 7.304688 11.699219 7.191406 11.761719 Z M 7.191406 11.761719 " fill-opacity="1" fill-rule="evenodd"/></g></g></g><g clip-path="url(#b6acee9229)"><g clip-path="url(#e22a3d4574)"><g clip-path="url(#0a0af7c51e)"><path fill="#ffde59" d="M 7.035156 11.488281 C 7 11.507812 6.941406 11.492188 6.917969 11.453125 L 6.445312 10.617188 C 6.472656 10.601562 6.496094 10.589844 6.523438 10.574219 C 6.546875 10.558594 6.570312 10.546875 6.597656 10.53125 L 7.070312 11.371094 C 7.089844 11.40625 7.074219 11.464844 7.035156 11.488281 Z M 7.035156 11.488281 " fill-opacity="1" fill-rule="evenodd"/></g></g></g><g clip-path="url(#26b385e6f1)"><g clip-path="url(#cfc790fada)"><g clip-path="url(#af1ca55cd2)"><path fill="#ffde59" d="M 4.847656 6.640625 L 4.792969 6.542969 C 4.785156 6.527344 4.769531 6.503906 4.789062 6.476562 L 4.929688 5.9375 L 4.632812 5.410156 C 4.605469 5.363281 4.628906 5.316406 4.667969 5.292969 C 4.714844 5.265625 4.753906 5.277344 4.785156 5.328125 L 5.101562 5.890625 C 5.109375 5.902344 5.121094 5.925781 5.117188 5.945312 L 4.964844 6.496094 L 5.019531 6.59375 C 4.964844 6.609375 4.90625 6.625 4.847656 6.640625 Z M 4.847656 6.640625 " fill-opacity="1" fill-rule="evenodd"/></g></g></g><g clip-path="url(#e29c6dbf0d)"><g clip-path="url(#459ccb4e4c)"><g clip-path="url(#a85c92222c)"><path fill="#ffde59" d="M 4.75 5.445312 C 4.636719 5.507812 4.496094 5.457031 4.429688 5.34375 C 4.367188 5.234375 4.398438 5.082031 4.511719 5.019531 C 4.636719 4.949219 4.78125 5 4.84375 5.113281 C 4.90625 5.226562 4.875 5.375 4.75 5.445312 Z M 4.75 5.445312 " fill-opacity="1" fill-rule="evenodd"/></g></g></g><g clip-path="url(#5d5a95e6f6)"><g clip-path="url(#da664083c6)"><g clip-path="url(#ffbf738058)"><path fill="#ffde59" d="M 3.894531 7.226562 L 3.839844 7.128906 L 3.292969 6.976562 C 3.273438 6.96875 3.257812 6.945312 3.25 6.933594 L 2.933594 6.371094 C 2.90625 6.320312 2.917969 6.28125 2.964844 6.253906 C 3.003906 6.230469 3.054688 6.234375 3.082031 6.285156 L 3.378906 6.8125 L 3.914062 6.96875 C 3.945312 6.96875 3.960938 6.992188 3.96875 7.007812 L 4.023438 7.105469 C 3.980469 7.148438 3.9375 7.1875 3.894531 7.226562 Z M 3.894531 7.226562 " fill-opacity="1" fill-rule="evenodd"/></g></g></g><g clip-path="url(#1f4d64efe4)"><g clip-path="url(#72f1f0cd5e)"><g clip-path="url(#7551274ff8)"><path fill="#ffde59" d="M 3.050781 6.402344 C 2.925781 6.472656 2.78125 6.421875 2.71875 6.308594 C 2.65625 6.199219 2.6875 6.046875 2.8125 5.976562 C 2.921875 5.914062 3.066406 5.964844 3.132812 6.078125 C 3.195312 6.191406 3.164062 6.339844 3.050781 6.402344 Z M 3.050781 6.402344 " fill-opacity="1" fill-rule="evenodd"/></g></g></g><g clip-path="url(#d73242ea15)"><g clip-path="url(#48319e91f7)"><g clip-path="url(#81a002dd15)"><path fill="#ffde59" d="M 3.976562 6.0625 C 3.867188 6.125 3.710938 6.082031 3.644531 5.96875 C 3.582031 5.855469 3.625 5.699219 3.738281 5.636719 C 3.851562 5.574219 4.007812 5.617188 4.070312 5.730469 C 4.132812 5.839844 4.089844 5.996094 3.976562 6.0625 Z M 3.976562 6.0625 " fill-opacity="1" fill-rule="evenodd"/><path fill="#ffde59" d="M 4.332031 6.867188 L 3.859375 6.027344 C 3.839844 5.992188 3.855469 5.933594 3.894531 5.910156 C 3.929688 5.890625 3.988281 5.90625 4.011719 5.945312 L 4.484375 6.78125 C 4.457031 6.796875 4.433594 6.808594 4.40625 6.824219 C 4.382812 6.839844 4.359375 6.851562 4.332031 6.867188 Z M 4.332031 6.867188 " fill-opacity="1" fill-rule="evenodd"/></g></g></g><g fill="#ffde59" fill-opacity="1"><g transform="translate(31.007589, 23.59386)"><g><path d="M 1.550781 0.492188 C 0.230469 0.726562 0.566406 2.597656 1.90625 2.359375 C 2.960938 2.171875 3.6875 1.5625 4.070312 0.761719 C 5.117188 -1.4375 3.550781 -5.242188 1.285156 -4.898438 C -1.230469 -4.511719 -0.402344 -0.253906 2.183594 -0.351562 C 2.558594 -0.367188 2.96875 -0.46875 3.417969 -0.683594 C 3.253906 -0.078125 2.5625 0.3125 1.550781 0.492188 Z M 3.113281 -2.066406 C 2.699219 -1.847656 2.191406 -1.988281 1.875 -2.246094 C 1.097656 -2.886719 2.039062 -3.730469 2.660156 -2.894531 C 2.832031 -2.667969 2.980469 -2.363281 3.113281 -2.066406 Z M 3.113281 -2.066406 "/></g></g></g><g fill="#ffde59" fill-opacity="1"><g transform="translate(34.883118, 22.906146)"><g><path d="M 1.886719 -0.339844 C 4.023438 -0.722656 4.460938 -3.445312 3.351562 -4.671875 C 2.679688 -5.421875 1.378906 -4.898438 1.589844 -3.730469 C 1.726562 -2.957031 2.726562 -2.6875 2.496094 -1.953125 C 2.128906 -1.058594 0.269531 -1.210938 -0.132812 -2.136719 L -0.332031 -1.867188 C -0.136719 -0.765625 0.703125 -0.128906 1.886719 -0.339844 Z M 2.515625 1.414062 C 2.902344 1.34375 3.164062 0.96875 3.09375 0.582031 C 3.027344 0.199219 2.648438 -0.0625 2.265625 0.00390625 C 1.878906 0.0742188 1.617188 0.449219 1.6875 0.835938 C 1.753906 1.21875 2.132812 1.480469 2.515625 1.414062 Z M 2.515625 1.414062 "/></g></g></g><g fill="#ffde59" fill-opacity="1"><g transform="translate(39.509843, 22.075764)"><g><path d="M -1.039062 -7.472656 C -1.246094 -7.257812 -1.050781 -6.941406 -0.84375 -7.140625 C -0.304688 -7.546875 0.285156 -7.679688 0.9375 -7.558594 C 1.449219 -7.582031 1.320312 -8.480469 0.601562 -8.351562 L 0.507812 -8.335938 C -0.0859375 -8.230469 -0.539062 -8.253906 -0.582031 -8.542969 C -0.609375 -8.824219 -0.0546875 -9.066406 0.0195312 -8.644531 C 0.0898438 -8.261719 1.152344 -8.984375 0.472656 -9.429688 C -0.261719 -9.886719 -1.289062 -9.246094 -1.140625 -8.421875 C -1.09375 -8.167969 -0.90625 -7.933594 -0.625 -7.828125 C -0.78125 -7.726562 -0.925781 -7.605469 -1.039062 -7.472656 Z M 2.429688 -1.527344 C 1.34375 -3.054688 0.417969 -4.484375 0.488281 -6.40625 C 0.507812 -6.996094 -0.203125 -7.109375 -0.316406 -6.457031 C -0.746094 -4.71875 -0.253906 -2.292969 0.3125 -1.152344 C 1.039062 0.488281 3.0625 -0.546875 2.429688 -1.527344 Z M 2.429688 -1.527344 "/></g></g></g></svg>